M48
; DRILL file {KiCad 9.0.7} date 2026-03-30T17:39:42-0400
; FORMAT={-:-/ absolute / metric / decimal}
; #@! TF.CreationDate,2026-03-30T17:39:42-04:00
; #@! TF.GenerationSoftware,Kicad,Pcbnew,9.0.7
; #@! TF.FileFunction,NonPlated,1,2,NPTH
FMAT,2
METRIC
; #@! TA.AperFunction,NonPlated,NPTH,ComponentDrill
T1C1.700
; #@! TA.AperFunction,NonPlated,NPTH,ComponentDrill
T2C4.000
%
G90
G05
T1
X190.183Y-104.775
X190.183Y-123.825
X200.343Y-104.775
X200.343Y-123.825
X209.232Y-104.775
X209.232Y-123.825
X219.392Y-104.775
X219.392Y-123.825
X228.282Y-104.775
X228.282Y-123.825
X238.442Y-104.775
X238.442Y-123.825
X247.332Y-104.775
X257.493Y-104.775
T2
X195.262Y-104.775
X195.262Y-123.825
X214.312Y-104.775
X214.312Y-123.825
X233.362Y-104.775
X233.362Y-123.825
X252.412Y-104.775
M30
