%TF.GenerationSoftware,KiCad,Pcbnew,9.0.7*%
%TF.CreationDate,2026-03-30T17:39:18-04:00*%
%TF.ProjectId,ChaosHackpad,4368616f-7348-4616-936b-7061642e6b69,rev?*%
%TF.SameCoordinates,Original*%
%TF.FileFunction,Soldermask,Top*%
%TF.FilePolarity,Negative*%
%FSLAX46Y46*%
G04 Gerber Fmt 4.6, Leading zero omitted, Abs format (unit mm)*
G04 Created by KiCad (PCBNEW 9.0.7) date 2026-03-30 17:39:18*
%MOMM*%
%LPD*%
G01*
G04 APERTURE LIST*
G04 Aperture macros list*
%AMRoundRect*
0 Rectangle with rounded corners*
0 $1 Rounding radius*
0 $2 $3 $4 $5 $6 $7 $8 $9 X,Y pos of 4 corners*
0 Add a 4 corners polygon primitive as box body*
4,1,4,$2,$3,$4,$5,$6,$7,$8,$9,$2,$3,0*
0 Add four circle primitives for the rounded corners*
1,1,$1+$1,$2,$3*
1,1,$1+$1,$4,$5*
1,1,$1+$1,$6,$7*
1,1,$1+$1,$8,$9*
0 Add four rect primitives between the rounded corners*
20,1,$1+$1,$2,$3,$4,$5,0*
20,1,$1+$1,$4,$5,$6,$7,0*
20,1,$1+$1,$6,$7,$8,$9,0*
20,1,$1+$1,$8,$9,$2,$3,0*%
G04 Aperture macros list end*
%ADD10RoundRect,0.250000X0.550000X-0.550000X0.550000X0.550000X-0.550000X0.550000X-0.550000X-0.550000X0*%
%ADD11C,1.600000*%
%ADD12C,1.700000*%
%ADD13C,4.000000*%
%ADD14C,2.200000*%
%ADD15R,2.000000X2.000000*%
%ADD16C,2.000000*%
%ADD17R,3.200000X2.000000*%
%ADD18R,1.700000X1.700000*%
%ADD19O,1.700000X1.700000*%
%ADD20RoundRect,0.152400X1.063600X0.609600X-1.063600X0.609600X-1.063600X-0.609600X1.063600X-0.609600X0*%
%ADD21C,1.524000*%
%ADD22RoundRect,0.152400X-1.063600X-0.609600X1.063600X-0.609600X1.063600X0.609600X-1.063600X0.609600X0*%
G04 APERTURE END LIST*
D10*
%TO.C,D6*%
X185737500Y-108585000D03*
D11*
X185737500Y-100965000D03*
%TD*%
D10*
%TO.C,D7*%
X185737500Y-127635000D03*
D11*
X185737500Y-120015000D03*
%TD*%
D10*
%TO.C,D11*%
X204787500Y-127635000D03*
D11*
X204787500Y-120015000D03*
%TD*%
D10*
%TO.C,D9*%
X204787500Y-108585000D03*
D11*
X204787500Y-100965000D03*
%TD*%
D10*
%TO.C,D12*%
X261937500Y-108585000D03*
D11*
X261937500Y-100965000D03*
%TD*%
D10*
%TO.C,D5*%
X223837500Y-108680600D03*
D11*
X223837500Y-101060600D03*
%TD*%
D10*
%TO.C,D8*%
X223837500Y-127635000D03*
D11*
X223837500Y-120015000D03*
%TD*%
D10*
%TO.C,D10*%
X242887500Y-108585000D03*
D11*
X242887500Y-100965000D03*
%TD*%
D12*
%TO.C,SW8*%
X247332500Y-104775000D03*
D13*
X252412500Y-104775000D03*
D12*
X257492500Y-104775000D03*
D14*
X254952500Y-99695000D03*
X248602500Y-102235000D03*
%TD*%
D12*
%TO.C,SW2*%
X190182500Y-104775000D03*
D13*
X195262500Y-104775000D03*
D12*
X200342500Y-104775000D03*
D14*
X197802500Y-99695000D03*
X191452500Y-102235000D03*
%TD*%
D12*
%TO.C,SW7*%
X228282500Y-123825000D03*
D13*
X233362500Y-123825000D03*
D12*
X238442500Y-123825000D03*
D14*
X235902500Y-118745000D03*
X229552500Y-121285000D03*
%TD*%
D12*
%TO.C,SW3*%
X190182500Y-123825000D03*
D13*
X195262500Y-123825000D03*
D12*
X200342500Y-123825000D03*
D14*
X197802500Y-118745000D03*
X191452500Y-121285000D03*
%TD*%
D12*
%TO.C,SW6*%
X228282500Y-104775000D03*
D13*
X233362500Y-104775000D03*
D12*
X238442500Y-104775000D03*
D14*
X235902500Y-99695000D03*
X229552500Y-102235000D03*
%TD*%
D15*
%TO.C,SW1*%
X245162500Y-121325000D03*
D16*
X245162500Y-126325000D03*
X245162500Y-123825000D03*
D17*
X252662500Y-118225000D03*
X252662500Y-129425000D03*
D16*
X259662500Y-126325000D03*
X259662500Y-121325000D03*
%TD*%
D12*
%TO.C,SW5*%
X209232500Y-123825000D03*
D13*
X214312500Y-123825000D03*
D12*
X219392500Y-123825000D03*
D14*
X216852500Y-118745000D03*
X210502500Y-121285000D03*
%TD*%
D18*
%TO.C,Brd1*%
X242575000Y-84405000D03*
D19*
X242575000Y-86945000D03*
X242575000Y-89485000D03*
X242575000Y-92025000D03*
%TD*%
D12*
%TO.C,SW4*%
X209232500Y-104775000D03*
D13*
X214312500Y-104775000D03*
D12*
X219392500Y-104775000D03*
D14*
X216852500Y-99695000D03*
X210502500Y-102235000D03*
%TD*%
D20*
%TO.C,U1*%
X186215000Y-76890000D03*
D21*
X187050000Y-76890000D03*
D20*
X186215000Y-79430000D03*
D21*
X187050000Y-79430000D03*
D20*
X186215000Y-81970000D03*
D21*
X187050000Y-81970000D03*
D20*
X186215000Y-84510000D03*
D21*
X187050000Y-84510000D03*
D20*
X186215000Y-87050000D03*
D21*
X187050000Y-87050000D03*
D20*
X186215000Y-89590000D03*
D21*
X187050000Y-89590000D03*
D20*
X186215000Y-92130000D03*
D21*
X187050000Y-92130000D03*
X202290000Y-92130000D03*
D22*
X203125000Y-92130000D03*
D21*
X202290000Y-89590000D03*
D22*
X203125000Y-89590000D03*
D21*
X202290000Y-87050000D03*
D22*
X203125000Y-87050000D03*
D21*
X202290000Y-84510000D03*
D22*
X203125000Y-84510000D03*
D21*
X202290000Y-81970000D03*
D22*
X203125000Y-81970000D03*
D21*
X202290000Y-79430000D03*
D22*
X203125000Y-79430000D03*
D21*
X202290000Y-76890000D03*
D22*
X203125000Y-76890000D03*
%TD*%
M02*
