M48
; DRILL file {KiCad 9.0.7} date 2026-03-30T17:39:42-0400
; FORMAT={-:-/ absolute / metric / decimal}
; #@! TF.CreationDate,2026-03-30T17:39:42-04:00
; #@! TF.GenerationSoftware,Kicad,Pcbnew,9.0.7
; #@! TF.FileFunction,Plated,1,2,PTH
FMAT,2
METRIC
; #@! TA.AperFunction,Plated,PTH,ViaDrill
T1C0.300
; #@! TA.AperFunction,Plated,PTH,ComponentDrill
T2C0.800
; #@! TA.AperFunction,Plated,PTH,ComponentDrill
T3C0.889
; #@! TA.AperFunction,Plated,PTH,ComponentDrill
T4C1.000
; #@! TA.AperFunction,Plated,PTH,ComponentDrill
T5C1.500
%
G90
G05
T1
X187.591Y-98.91
X187.796Y-126.983
X192.912Y-116.618
X194.401Y-111.792
X198.308Y-116.419
X207.881Y-109.524
X213.692Y-83.53
X215.861Y-116.419
X215.936Y-112.091
X216.968Y-111.654
X217.491Y-117.132
X221.988Y-109.639
X227.696Y-113.271
X229.507Y-115.889
X233.983Y-81.28
X235.07Y-116.838
X242.679Y-96.023
X245.903Y-110.681
X251.375Y-110.767
X254.274Y-81.28
T2
X185.737Y-100.965
X185.737Y-108.585
X185.737Y-120.015
X185.737Y-127.635
X204.787Y-100.965
X204.787Y-108.585
X204.787Y-120.015
X204.787Y-127.635
X223.837Y-101.061
X223.837Y-108.681
X223.837Y-120.015
X223.837Y-127.635
X242.887Y-100.965
X242.887Y-108.585
X261.938Y-100.965
X261.938Y-108.585
T3
X187.05Y-76.89
X187.05Y-79.43
X187.05Y-81.97
X187.05Y-84.51
X187.05Y-87.05
X187.05Y-89.59
X187.05Y-92.13
X202.29Y-76.89
X202.29Y-79.43
X202.29Y-81.97
X202.29Y-84.51
X202.29Y-87.05
X202.29Y-89.59
X202.29Y-92.13
T4
X242.575Y-84.405
X242.575Y-86.945
X242.575Y-89.485
X242.575Y-92.025
X245.162Y-121.325
X245.162Y-123.825
X245.162Y-126.325
X259.662Y-121.325
X259.662Y-126.325
T5
X191.452Y-102.235
X191.452Y-121.285
X197.802Y-99.695
X197.802Y-118.745
X210.502Y-102.235
X210.502Y-121.285
X216.852Y-99.695
X216.852Y-118.745
X229.552Y-102.235
X229.552Y-121.285
X235.903Y-99.695
X235.903Y-118.745
X248.602Y-102.235
X254.952Y-99.695
T5
X252.012Y-118.225G85X253.312Y-118.225
G05
X252.012Y-129.425G85X253.312Y-129.425
G05
M30
