%TF.GenerationSoftware,KiCad,Pcbnew,9.0.7*%
%TF.CreationDate,2026-03-30T17:39:18-04:00*%
%TF.ProjectId,ChaosHackpad,4368616f-7348-4616-936b-7061642e6b69,rev?*%
%TF.SameCoordinates,Original*%
%TF.FileFunction,Profile,NP*%
%FSLAX46Y46*%
G04 Gerber Fmt 4.6, Leading zero omitted, Abs format (unit mm)*
G04 Created by KiCad (PCBNEW 9.0.7) date 2026-03-30 17:39:18*
%MOMM*%
%LPD*%
G01*
G04 APERTURE LIST*
%TA.AperFunction,Profile*%
%ADD10C,0.050000*%
%TD*%
%TA.AperFunction,Profile*%
%ADD11C,0.100000*%
%TD*%
G04 APERTURE END LIST*
D10*
X183356250Y-74010000D02*
X264318750Y-74010000D01*
X264318750Y-135731250D01*
X183356250Y-135731250D01*
X183356250Y-74010000D01*
D11*
%TO.C,D4*%
X250712502Y-114900000D02*
X250712502Y-113494316D01*
X251618049Y-112697159D02*
X253206954Y-112697159D01*
X253206953Y-115697158D02*
X251618049Y-115697158D01*
X254112500Y-113494316D02*
X254112500Y-114900000D01*
X250663017Y-113277438D02*
G75*
G02*
X250712502Y-113494316I-450505J-216876D01*
G01*
X250663017Y-113277438D02*
G75*
G02*
X251365790Y-112628859I450515J216878D01*
G01*
X250712502Y-114900001D02*
G75*
G02*
X250663017Y-115116878I-499990J-1D01*
G01*
X251365790Y-115765455D02*
G75*
G02*
X250663017Y-115116878I-252258J431700D01*
G01*
X251365791Y-115765457D02*
G75*
G02*
X251618049Y-115697158I252261J-431710D01*
G01*
X251618048Y-112697158D02*
G75*
G02*
X251365790Y-112628859I3J500009D01*
G01*
X253206953Y-115697158D02*
G75*
G02*
X253459212Y-115765457I-3J-500012D01*
G01*
X253459212Y-112628860D02*
G75*
G02*
X253206954Y-112697160I-252262J431710D01*
G01*
X253459212Y-112628860D02*
G75*
G02*
X254161984Y-113277438I252258J-431700D01*
G01*
X254112500Y-113494315D02*
G75*
G02*
X254161979Y-113277435I500000J15D01*
G01*
X254161985Y-115116877D02*
G75*
G02*
X253459212Y-115765457I-450514J-216880D01*
G01*
X254161985Y-115116878D02*
G75*
G02*
X254112500Y-114900000I450515J216878D01*
G01*
%TO.C,D1*%
X193562502Y-114900000D02*
X193562502Y-113494316D01*
X194468049Y-112697159D02*
X196056954Y-112697159D01*
X196056953Y-115697158D02*
X194468049Y-115697158D01*
X196962500Y-113494316D02*
X196962500Y-114900000D01*
X193513017Y-113277438D02*
G75*
G02*
X193562502Y-113494316I-450505J-216876D01*
G01*
X193513017Y-113277438D02*
G75*
G02*
X194215790Y-112628859I450515J216878D01*
G01*
X193562502Y-114900001D02*
G75*
G02*
X193513017Y-115116878I-499990J-1D01*
G01*
X194215790Y-115765455D02*
G75*
G02*
X193513017Y-115116878I-252258J431700D01*
G01*
X194215791Y-115765457D02*
G75*
G02*
X194468049Y-115697158I252261J-431710D01*
G01*
X194468048Y-112697158D02*
G75*
G02*
X194215790Y-112628859I3J500009D01*
G01*
X196056953Y-115697158D02*
G75*
G02*
X196309212Y-115765457I-3J-500012D01*
G01*
X196309212Y-112628860D02*
G75*
G02*
X196056954Y-112697160I-252262J431710D01*
G01*
X196309212Y-112628860D02*
G75*
G02*
X197011984Y-113277438I252258J-431700D01*
G01*
X196962500Y-113494315D02*
G75*
G02*
X197011979Y-113277435I500000J15D01*
G01*
X197011985Y-115116877D02*
G75*
G02*
X196309212Y-115765457I-450514J-216880D01*
G01*
X197011985Y-115116878D02*
G75*
G02*
X196962500Y-114900000I450515J216878D01*
G01*
%TO.C,D3*%
X231031202Y-114900000D02*
X231031202Y-113494316D01*
X231936749Y-112697159D02*
X233525654Y-112697159D01*
X233525653Y-115697158D02*
X231936749Y-115697158D01*
X234431200Y-113494316D02*
X234431200Y-114900000D01*
X230981717Y-113277438D02*
G75*
G02*
X231031202Y-113494316I-450505J-216876D01*
G01*
X230981717Y-113277438D02*
G75*
G02*
X231684490Y-112628859I450515J216878D01*
G01*
X231031202Y-114900001D02*
G75*
G02*
X230981717Y-115116878I-499990J-1D01*
G01*
X231684490Y-115765455D02*
G75*
G02*
X230981717Y-115116878I-252258J431700D01*
G01*
X231684491Y-115765457D02*
G75*
G02*
X231936749Y-115697158I252261J-431710D01*
G01*
X231936748Y-112697158D02*
G75*
G02*
X231684490Y-112628859I3J500009D01*
G01*
X233525653Y-115697158D02*
G75*
G02*
X233777912Y-115765457I-3J-500012D01*
G01*
X233777912Y-112628860D02*
G75*
G02*
X233525654Y-112697160I-252262J431710D01*
G01*
X233777912Y-112628860D02*
G75*
G02*
X234480684Y-113277438I252258J-431700D01*
G01*
X234431200Y-113494315D02*
G75*
G02*
X234480679Y-113277435I500000J15D01*
G01*
X234480685Y-115116877D02*
G75*
G02*
X233777912Y-115765457I-450514J-216880D01*
G01*
X234480685Y-115116878D02*
G75*
G02*
X234431200Y-114900000I450515J216878D01*
G01*
%TO.C,D2*%
X211981202Y-114900000D02*
X211981202Y-113494316D01*
X212886749Y-112697159D02*
X214475654Y-112697159D01*
X214475653Y-115697158D02*
X212886749Y-115697158D01*
X215381200Y-113494316D02*
X215381200Y-114900000D01*
X211931717Y-113277438D02*
G75*
G02*
X211981202Y-113494316I-450505J-216876D01*
G01*
X211931717Y-113277438D02*
G75*
G02*
X212634490Y-112628859I450515J216878D01*
G01*
X211981202Y-114900001D02*
G75*
G02*
X211931717Y-115116878I-499990J-1D01*
G01*
X212634490Y-115765455D02*
G75*
G02*
X211931717Y-115116878I-252258J431700D01*
G01*
X212634491Y-115765457D02*
G75*
G02*
X212886749Y-115697158I252261J-431710D01*
G01*
X212886748Y-112697158D02*
G75*
G02*
X212634490Y-112628859I3J500009D01*
G01*
X214475653Y-115697158D02*
G75*
G02*
X214727912Y-115765457I-3J-500012D01*
G01*
X214727912Y-112628860D02*
G75*
G02*
X214475654Y-112697160I-252262J431710D01*
G01*
X214727912Y-112628860D02*
G75*
G02*
X215430684Y-113277438I252258J-431700D01*
G01*
X215381200Y-113494315D02*
G75*
G02*
X215430679Y-113277435I500000J15D01*
G01*
X215430685Y-115116877D02*
G75*
G02*
X214727912Y-115765457I-450514J-216880D01*
G01*
X215430685Y-115116878D02*
G75*
G02*
X215381200Y-114900000I450515J216878D01*
G01*
%TD*%
M02*
